# File created by Blade
# Date/Time:  Wed Jan 21 16:33:39 2015
#---------------------------------------------------------
:version 1.10
:name HOM
:units
  mass 1.0
  length 1.000000
  angle deg
:documentation
     Acclaim Skeleton File
:root
   axis xyz
   order TX TY TZ RX RY RZ
   position 0.000000 0.000000 0.000000
   orientation 0 0 0
:bonedata
   begin
      id 1
      name Spine_dum
      direction 0.000000 1.000000 0.000000
      length 7.067664
      axis 0.0 0.0 0.0 xyz
   end
   begin
      id 2
      name LeftUpLeg_dum
      direction 1.000000 0.000000 0.000000
      length 4.013002
      axis 0.0 0.0 0.0 xyz
   end
   begin
      id 3
      name RightUpLeg_dum
      direction -1.000000 0.000000 0.000000
      length 4.013002
      axis 0.0 0.0 0.0 xyz
   end
   begin
      id 4
      name Spine
      direction 0.000000 1.000000 0.000000
      length 0.000000
      axis 0.0 0.0 0.0 xyz
      dof rx ry rz
   end
   begin
      id 5
      name Spine_dum1
      direction 0.000000 1.000000 0.000000
      length 15.039886
      axis 0.0 0.0 0.0 xyz
   end
   begin
      id 6
      name Spine_dum2
      direction 0.000000 1.000000 0.000000
      length 10.530368
      axis 0.0 0.0 0.0 xyz
   end
   begin
      id 7
      name Spine_dum3
      direction 0.000000 1.000000 0.000000
      length 10.530368
      axis 0.0 0.0 0.0 xyz
   end
   begin
      id 8
      name Head
      direction 0.000000 1.000000 0.000000
      length 4.527550
      axis 0.0 0.0 0.0 xyz
      dof rx ry rz
   end
   begin
      id 9
      name LeftShoulder
      direction 1.000000 0.000000 0.000000
      length 7.028855
      axis 0.0 0.0 -90.0 xyz
      dof rx ry rz
   end
   begin
      id 10
      name LeftArm
      direction 1.000000 0.000000 0.000000
      length 10.797705
      axis 0.0 0.0 -90.0 xyz
      dof rx ry rz
   end
   begin
      id 11
      name LeftForeArm
      direction 1.000000 0.000000 0.000000
      length 7.907442
      axis 0.0 0.0 -90.0 xyz
      dof ry rz rx
   end
   begin
      id 12
      name LeftHand
      direction 0.000000 0.000000 0.000000
      length 0.000000
      axis 0.0 0.0 -90.0 xyz
      dof rx ry rz
   end
   begin
      id 13
      name LeftHand_dum1
      direction 0.000000 0.000000 0.000000
      length 0.000000
      axis 0.0 0.0 -90.0 xyz
   end
   begin
      id 14
      name LeftHand_dum2
      direction 1.000000 0.000000 0.000000
      length 3.937000
      axis 0.0 0.0 -90.0 xyz
   end
   begin
      id 15
      name LeftHandThumb1
      direction 0.000000 0.000000 1.000000
      length 3.937000
      axis 0.0 0.0 -90.0 xyz
      dof rx rz ry
   end
   begin
      id 16
      name RightShoulder
      direction -1.000000 0.000000 0.000000
      length 7.028855
      axis 0.0 0.0 90.0 xyz
      dof rx ry rz
   end
   begin
      id 17
      name RightArm
      direction -1.000000 0.000000 0.000000
      length 10.797705
      axis 0.0 0.0 90.0 xyz
      dof rx ry rz
   end
   begin
      id 18
      name RightForeArm
      direction -1.000000 0.000000 0.000000
      length 7.907442
      axis 0.0 0.0 90.0 xyz
      dof ry rz rx
   end
   begin
      id 19
      name RightHand
      direction 0.000000 0.000000 0.000000
      length 0.000000
      axis 0.0 0.0 90.0 xyz
      dof rx ry rz
   end
   begin
      id 20
      name RightHand_dum1
      direction 0.000000 0.000000 0.000000
      length 0.000000
      axis 0.0 0.0 90.0 xyz
   end
   begin
      id 21
      name RightHand_dum2
      direction -1.000000 0.000000 0.000000
      length 3.937000
      axis 0.0 0.0 90.0 xyz
   end
   begin
      id 22
      name RightHandThumb1
      direction 0.000000 0.000000 1.000000
      length 3.937000
      axis 0.0 0.0 90.0 xyz
      dof rx rz ry
   end
   begin
      id 23
      name LeftUpLeg
      direction 0.000000 -1.000000 0.000000
      length 16.899758
      axis 0.0 0.0 0.0 xyz
      dof rx ry rz
   end
   begin
      id 24
      name LeftLeg
      direction 0.000000 -1.000000 0.000000
      length 17.389183
      axis 0.0 0.0 0.0 xyz
      dof rx ry rz
   end
   begin
      id 25
      name LeftFoot
      direction 0.000000 -0.258819 0.965926
      length 4.924528
      axis 15.0 0.0 0.0 xyz
      dof rx ry rz
   end
   begin
      id 26
      name LeftToeBase
      direction 0.000000 0.000000 1.000000
      length 2.952750
      axis 0.0 0.0 0.0 xyz
      dof rx ry rz
   end
   begin
      id 27
      name RightUpLeg
      direction 0.000000 -1.000000 0.000000
      length 16.899758
      axis 0.0 0.0 0.0 xyz
      dof rx ry rz
   end
   begin
      id 28
      name RightLeg
      direction 0.000000 -1.000000 0.000000
      length 17.389183
      axis 0.0 0.0 0.0 xyz
      dof rx ry rz
   end
   begin
      id 29
      name RightFoot
      direction 0.000000 -0.258819 0.965926
      length 4.924528
      axis 15.0 0.0 0.0 xyz
      dof rx ry rz
   end
   begin
      id 30
      name RightToeBase
      direction 0.000000 0.000000 1.000000
      length 2.952750
      axis 0.0 0.0 0.0 xyz
      dof rx ry rz
   end
:hierarchy
   begin
      root Spine_dum LeftUpLeg_dum RightUpLeg_dum
      Spine_dum Spine
      LeftUpLeg_dum LeftUpLeg
      RightUpLeg_dum RightUpLeg
      Spine Spine_dum1 Spine_dum2 Spine_dum3
      Spine_dum1 Head
      Spine_dum2 LeftShoulder
      Spine_dum3 RightShoulder
      LeftShoulder LeftArm
      LeftArm LeftForeArm
      LeftForeArm LeftHand
      LeftHand LeftHand_dum1 LeftHand_dum2
      LeftHand_dum1 LeftHandThumb1
      RightShoulder RightArm
      RightArm RightForeArm
      RightForeArm RightHand
      RightHand RightHand_dum1 RightHand_dum2
      RightHand_dum1 RightHandThumb1
      LeftUpLeg LeftLeg
      LeftLeg LeftFoot
      LeftFoot LeftToeBase
      RightUpLeg RightLeg
      RightLeg RightFoot
      RightFoot RightToeBase
   end

# File created by Blade
# Date/Time:  Wed Jan 21 16:33:30 2015
# Frame Rate: 120.000 fps
#------------------------------------------------------
:FULLY-SPECIFIED
:DEGREES
157
root 25.922402 34.671825 -25.364461 -109.763209 84.799797 -108.142393
Spine 23.624658 0.053332 7.054684
Head 26.643068 -3.806790 -2.234369
LeftShoulder -8.549211 -18.662375 -1.894686
LeftArm -9.472232 20.078731 -82.349680
LeftForeArm -3.814583 -0.000000 7.009764
LeftHand 1.175180 -0.000000 6.198172
LeftHandThumb1 -26.253704 0.000000 33.147579
RightShoulder -3.962030 -15.617465 3.005807
RightArm 17.587409 -5.394957 70.382068
RightForeArm -20.911212 -0.000000 20.109532
RightHand -0.739429 -0.000000 -1.323740
RightHandThumb1 -24.326973 -0.000000 -32.862282
LeftUpLeg -7.845589 -0.563799 2.877837
LeftLeg 49.170063 -0.000000 -0.000000
LeftFoot -24.819029 37.083979 -10.339323
LeftToeBase 8.072385 -0.000000 -0.000000
RightUpLeg -16.489925 1.008457 8.628928
RightLeg 12.500396 -0.000000 -0.000000
RightFoot -17.153283 -25.591041 16.249120
RightToeBase 18.272553 -0.000000 -0.000000
158
root 26.023113 34.687426 -25.298032 -111.128175 84.651987 -109.499599
Spine 23.931195 0.093983 7.287057
Head 26.657424 -3.979997 -2.170290
LeftShoulder -8.504788 -18.740464 -2.027403
LeftArm -9.535156 20.062020 -82.461991
LeftForeArm -3.412005 -0.000000 7.044910
LeftHand 1.240995 0.000000 5.868242
LeftHandThumb1 -26.253704 0.000000 33.147579
RightShoulder -3.922749 -15.602645 2.955088
RightArm 17.883499 -5.777329 70.117456
RightForeArm -20.840530 -0.000000 20.212800
RightHand -0.671873 -0.000000 -1.334664
RightHandThumb1 -24.326973 -0.000000 -32.862282
LeftUpLeg -8.980180 -0.380471 3.039668
LeftLeg 50.614537 -0.000000 -0.000000
LeftFoot -24.918719 36.604118 -10.127660
LeftToeBase 8.110835 -0.000000 -0.000000
RightUpLeg -16.365606 0.574306 8.874407
RightLeg 12.623937 -0.000000 -0.000000
RightFoot -17.544736 -25.229501 16.532109
RightToeBase 18.160219 -0.000000 -0.000000
159
root 26.125705 34.706255 -25.239873 -111.843514 84.626796 -110.159873
Spine 24.298609 0.257384 7.388420
Head 26.664660 -4.200607 -2.075013
LeftShoulder -8.458075 -18.853266 -2.143418
LeftArm -9.612676 19.963818 -82.550168
LeftForeArm -2.902365 -0.000000 7.048247
LeftHand 1.217936 -0.000000 5.403718
LeftHandThumb1 -26.253704 0.000000 33.147579
RightShoulder -3.883910 -15.492835 2.988705
RightArm 18.092149 -6.130604 69.843092
RightForeArm -20.793337 -0.000000 20.275930
RightHand -0.635975 -0.000000 -1.318283
RightHandThumb1 -24.326973 -0.000000 -32.862282
LeftUpLeg -9.923122 -0.273750 3.026793
LeftLeg 51.669052 -0.000000 -0.000000
LeftFoot -25.199706 36.151553 -10.043478
LeftToeBase 8.802670 -0.000000 -0.000000
RightUpLeg -16.133170 0.356431 8.987734
RightLeg 12.638416 -0.000000 -0.000000
RightFoot -17.895101 -24.966322 16.775328
RightToeBase 17.908418 -0.000000 -0.000000
160
root 26.228163 34.725614 -25.186990 -112.988195 84.649898 -111.233397
Spine 24.675506 0.423778 7.442918
Head 26.659139 -4.397927 -1.994536
LeftShoulder -8.475342 -18.817906 -2.336335
LeftArm -9.568448 20.411243 -82.598545
LeftForeArm -2.866425 -0.000000 7.155188
LeftHand 1.128136 -0.000000 5.191049
LeftHandThumb1 -26.253704 0.000000 33.147579
RightShoulder -3.896709 -15.361845 3.039178
RightArm 18.260573 -6.396401 69.622927
RightForeArm -20.789194 -0.000000 20.337597
RightHand -0.528597 -0.000000 -1.472954
RightHandThumb1 -24.326973 -0.000000 -32.862282
LeftUpLeg -10.779912 -0.203361 2.925662
LeftLeg 52.505460 -0.000000 -0.000000
LeftFoot -24.995462 35.762108 -9.485071
LeftToeBase 8.416426 -0.000000 -0.000000
RightUpLeg -15.958724 0.034672 9.054385
RightLeg 12.785391 -0.000000 -0.000000
RightFoot -18.302224 -24.673552 16.981957
RightToeBase 17.739870 -0.000000 -0.000000
161
root 26.325527 34.741911 -25.134341 -113.886368 84.663385 -112.098667
Spine 25.000915 0.575938 7.480572
Head 26.626583 -4.551938 -1.845011
LeftShoulder -8.426810 -18.906331 -2.428212
LeftArm -9.708778 20.370328 -82.708510
LeftForeArm -2.680448 -0.000000 7.227062
LeftHand 1.014347 -0.000000 4.917925
LeftHandThumb1 -26.253704 0.000000 33.147579
RightShoulder -3.935044 -15.348738 3.093360
RightArm 18.586950 -6.692577 69.381614
RightForeArm -20.694817 -0.000000 20.376151
RightHand -0.587084 -0.000000 -1.485274
RightHandThumb1 -24.326973 -0.000000 -32.862282
LeftUpLeg -11.785994 0.116769 2.866426
LeftLeg 53.362179 -0.000000 -0.000000
LeftFoot -25.348833 34.977957 -9.702151
LeftToeBase 8.804240 -0.000000 -0.000000
RightUpLeg -15.830979 -0.201469 9.122068
RightLeg 12.925854 -0.000000 -0.000000
RightFoot -18.740244 -24.413536 17.224723
RightToeBase 17.605487 -0.000000 -0.000000
162
root 26.425593 34.762516 -25.087106 -114.873197 84.726818 -113.037014
Spine 25.324579 0.743334 7.450458
Head 26.643834 -4.697681 -1.692371
LeftShoulder -8.442964 -18.852240 -2.554421
LeftArm -9.744735 20.757927 -82.791278
LeftForeArm -2.896038 -0.000000 7.355922
LeftHand 0.921798 -0.000000 4.605662
LeftHandThumb1 -26.253704 0.000000 33.147579
RightShoulder -3.980226 -15.271702 3.181785
RightArm 18.841559 -7.038604 69.119521
RightForeArm -20.544353 -0.000000 20.392876
RightHand -0.557494 -0.000000 -1.524369
RightHandThumb1 -24.326973 -0.000000 -32.862282
LeftUpLeg -12.662018 0.360183 2.715795
LeftLeg 53.903134 -0.000000 -0.000000
LeftFoot -25.669494 34.334825 -9.708434
LeftToeBase 9.121854 -0.000000 -0.000000
RightUpLeg -15.687194 -0.421717 9.134533
RightLeg 13.085453 -0.000000 -0.000000
RightFoot -19.127377 -24.157400 17.381083
RightToeBase 17.418476 -0.000000 -0.000000
163
root 26.525175 34.784010 -25.039881 -115.990268 84.807462 -114.093011
Spine 25.666655 0.912859 7.392572
Head 26.601090 -4.876229 -1.544797
LeftShoulder -8.449751 -18.774012 -2.671318
LeftArm -9.720379 20.851095 -82.850698
LeftForeArm -2.846898 -0.000000 7.285923
LeftHand 1.129241 0.000000 4.620714
LeftHandThumb1 -26.253704 0.000000 33.147579
RightShoulder -4.024948 -15.204730 3.262416
RightArm 19.072873 -7.382564 68.905394
RightForeArm -20.399350 -0.000000 20.492214
RightHand -0.645922 -0.000000 -1.782833
RightHandThumb1 -24.326973 -0.000000 -32.862282
LeftUpLeg -13.474035 0.541669 2.509439
LeftLeg 54.239247 -0.000000 -0.000000
LeftFoot -26.045757 33.761644 -9.753211
LeftToeBase 9.085004 -0.000000 -0.000000
RightUpLeg -15.504091 -0.559790 9.111911
RightLeg 13.190197 -0.000000 -0.000000
RightFoot -19.500801 -23.979494 17.501896
RightToeBase 17.361115 -0.000000 -0.000000
164
root 26.617227 34.805834 -24.991767 -116.955903 84.880328 -115.068293
Spine 25.908701 1.136925 7.333616
Head 26.608596 -5.073344 -1.361484
LeftShoulder -8.345092 -18.812601 -2.775157
LeftArm -9.843402 20.523034 -82.870571
LeftForeArm -2.388668 -0.000000 7.245854
LeftHand 1.150278 -0.000000 4.027187
LeftHandThumb1 -26.253704 0.000000 33.147579
RightShoulder -4.162633 -15.228918 3.410711
RightArm 19.438944 -7.749829 68.628105
RightForeArm -20.314875 -0.000000 20.486121
RightHand -0.656966 -0.000000 -1.813420
RightHandThumb1 -24.326973 -0.000000 -32.862282
LeftUpLeg -14.342579 0.774216 2.299932
LeftLeg 54.402013 -0.000000 -0.000000
LeftFoot -26.484277 33.240840 -9.967392
LeftToeBase 9.332405 -0.000000 -0.000000
RightUpLeg -15.428420 -0.730028 9.109079
RightLeg 13.348188 -0.000000 -0.000000
RightFoot -19.830147 -23.711751 17.659037
RightToeBase 17.363280 -0.000000 -0.000000
165
root 26.707179 34.827482 -24.947168 -118.095013 84.958176 -116.209021
Spine 26.156097 1.312913 7.265677
Head 26.600390 -5.189634 -1.156221
LeftShoulder -8.273376 -18.833421 -2.865034
LeftArm -9.969085 20.532767 -82.957562
LeftForeArm -2.276146 0.000000 7.200352
LeftHand 1.034936 -0.000000 3.564445
LeftHandThumb1 -26.253704 0.000000 33.147579
RightShoulder -4.205317 -15.152190 3.460163
RightArm 19.624357 -7.968878 68.522183
RightForeArm -20.381748 0.000000 20.528135
RightHand -0.637543 0.000000 -1.820280
RightHandThumb1 -24.326973 -0.000000 -32.862282
LeftUpLeg -15.175611 1.020017 2.068127
LeftLeg 54.396081 -0.000000 -0.000000
LeftFoot -26.893228 32.692215 -10.064322
LeftToeBase 9.930172 -0.000000 -0.000000
RightUpLeg -15.355603 -0.930665 9.088487
RightLeg 13.516660 -0.000000 -0.000000
RightFoot -20.144677 -23.401575 17.795362
RightToeBase 17.385110 -0.000000 -0.000000
166
root 26.794778 34.850749 -24.907048 -118.617795 85.074958 -116.763955
Spine 26.374465 1.547538 7.184689
Head 26.560419 -5.322882 -1.022223
LeftShoulder -8.233098 -18.813568 -2.943713
LeftArm -10.065654 20.476652 -83.034908
LeftForeArm -2.120357 -0.000000 7.146430
LeftHand 1.009269 -0.000000 3.194650
LeftHandThumb1 -26.253704 0.000000 33.147579
RightShoulder -4.281798 -15.149983 3.525290
RightArm 19.901646 -8.257354 68.361498
RightForeArm -20.420621 0.000000 20.544413
RightHand -0.587165 -0.000000 -1.635468
RightHandThumb1 -24.326973 -0.000000 -32.862282
LeftUpLeg -15.981442 1.334890 1.797542
LeftLeg 54.212798 -0.000000 -0.000000
LeftFoot -27.183986 32.208449 -10.223114
LeftToeBase 9.801827 -0.000000 -0.000000
RightUpLeg -15.214399 -0.763776 9.011974
RightLeg 13.493153 -0.000000 -0.000000
RightFoot -20.443603 -23.437296 17.957567
RightToeBase 17.156458 -0.000000 -0.000000
167
root 26.879673 34.874169 -24.870464 -119.491525 85.223195 -117.678244
Spine 26.574441 1.765536 7.051622
Head 26.524340 -5.469838 -0.927865
LeftShoulder -8.220981 -18.768498 -3.016195
LeftArm -10.131602 20.809037 -83.149793
LeftForeArm -2.243360 -0.000000 7.053292
LeftHand 0.819440 -0.000000 3.055593
LeftHandThumb1 -26.253704 0.000000 33.147579
RightShoulder -4.316436 -15.101099 3.559084
RightArm 20.103410 -8.513414 68.262274
RightForeArm -20.495022 0.000000 20.559087
RightHand -0.577236 -0.000000 -1.615810
RightHandThumb1 -24.326973 -0.000000 -32.862282
LeftUpLeg -16.770614 1.642609 1.471061
LeftLeg 53.880415 -0.000000 -0.000000
LeftFoot -27.572251 31.617510 -10.579167
LeftToeBase 9.855662 -0.000000 -0.000000
RightUpLeg -15.148916 -0.858632 8.924842
RightLeg 13.573331 -0.000000 -0.000000
RightFoot -20.753628 -23.250700 18.113951
RightToeBase 17.212653 -0.000000 -0.000000
168
root 26.956725 34.898331 -24.836807 -119.576442 85.392213 -117.844214
Spine 26.731749 2.046027 6.942738
Head 26.490956 -5.597833 -0.847771
LeftShoulder -8.175895 -18.662098 -3.083293
LeftArm -10.132449 21.002886 -83.259876
LeftForeArm -2.168033 -0.000000 6.940677
LeftHand 0.692018 -0.000000 2.660452
LeftHandThumb1 -26.253704 0.000000 33.147579
RightShoulder -4.348898 -15.076442 3.549977
RightArm 20.318239 -8.721237 68.212140
RightForeArm -20.533232 -0.000000 20.553849
RightHand -0.531259 -0.000000 -1.511290
RightHandThumb1 -24.326973 -0.000000 -32.862282
LeftUpLeg -17.521267 1.966558 1.143758
LeftLeg 53.340903 -0.000000 -0.000000
LeftFoot -27.873317 31.063001 -10.661406
LeftToeBase 10.248437 -0.000000 -0.000000
RightUpLeg -15.068702 -0.777902 8.816812
RightLeg 13.538357 -0.000000 -0.000000
RightFoot -20.978185 -23.120476 18.283190
RightToeBase 17.146748 -0.000000 -0.000000
169
root 27.045990 34.922978 -24.798482 -120.680231 85.492997 -118.953001
Spine 26.931342 2.231705 6.842924
Head 26.491094 -5.695460 -0.716521
LeftShoulder -8.120223 -18.583448 -3.138138
LeftArm -10.158534 21.041035 -83.343140
LeftForeArm -2.027458 -0.000000 6.780249
LeftHand 0.670937 -0.000000 2.419935
LeftHandThumb1 -26.253704 0.000000 33.147579
RightShoulder -4.340300 -15.127628 3.559999
RightArm 20.518954 -8.847313 68.184448
RightForeArm -20.640832 -0.000000 20.617047
RightHand -0.551777 -0.000000 -1.372377
RightHandThumb1 -24.326973 -0.000000 -32.862282
LeftUpLeg -18.127258 2.282818 0.853706
LeftLeg 52.640939 -0.000000 -0.000000
LeftFoot -28.112726 30.446034 -10.585390
LeftToeBase 10.760523 -0.000000 -0.000000
RightUpLeg -14.985854 -0.894036 8.754791
RightLeg 13.693939 -0.000000 -0.000000
RightFoot -21.165099 -22.950472 18.297414
RightToeBase 16.874403 -0.000000 -0.000000
